<?xml version="1.0" encoding="utf-8"?>
<!-- Generator: Adobe Illustrator 25.0.0, SVG Export Plug-In . SVG Version: 6.00 Build 0)  -->
<svg version="1.1" id="Layer_1" xmlns="http://www.w3.org/2000/svg" xmlns:xlink="http://www.w3.org/1999/xlink" x="0px" y="0px"
	 viewBox="0 0 940 460" style="enable-background:new 0 0 940 460;" xml:space="preserve">
<style type="text/css">
	.st0{fill:#FBF7EC;}
	.st1{fill:#E8B23A;stroke:#1A1A1F;stroke-width:0.525;stroke-miterlimit:4.2;}
	.st2{fill:#E8593C;stroke:#1A1A1F;stroke-width:0.525;stroke-miterlimit:4.2;}
	.st3{fill:#F6F1E4;stroke:#1A1A1F;stroke-width:0.525;stroke-miterlimit:4.2;}
	.st4{opacity:0.86;fill:#E8593C;enable-background:new    ;}
	.st5{opacity:0.86;fill:#2C8B8E;enable-background:new    ;}
	.st6{opacity:0.86;fill:#E8B23A;enable-background:new    ;}
	
		.st7{opacity:0.55;fill:none;stroke:#1A1A1F;stroke-width:1.47;stroke-miterlimit:4.2;stroke-dasharray:2.1,4.2;enable-background:new    ;}
	.st8{fill:#F6F1E4;stroke:#1A1A1F;stroke-width:2.1;stroke-miterlimit:4.2;}
	.st9{fill:#E8593C;stroke:#1A1A1F;stroke-width:2.1;stroke-miterlimit:4.2;}
	.st10{fill:#E8B23A;stroke:#1A1A1F;stroke-width:2.1;stroke-miterlimit:4.2;}
	.st11{fill:#1A1A1F;}
	.st12{fill:#F6F1E4;}
	
		.st13{opacity:0.55;fill:none;stroke:#1A1A1F;stroke-width:1.575;stroke-miterlimit:4.2;stroke-dasharray:2.1,4.2;enable-background:new    ;}
	.st14{fill:#E8593C;stroke:#1A1A1F;stroke-width:2.625;stroke-miterlimit:4.2;}
	.st15{fill:#E8B23A;stroke:#1A1A1F;stroke-width:2.625;stroke-miterlimit:4.2;}
	.st16{fill:#2C8B8E;stroke:#1A1A1F;stroke-width:2.625;stroke-miterlimit:4.2;}
	.st17{font-family:'Helvetica-Bold';}
	.st18{font-size:48px;}
	.st19{letter-spacing:2;}
	.st20{fill:#8A8270;}
	.st21{font-family:'CourierNewPS-BoldMT';}
	.st22{font-size:37px;}
	.st23{letter-spacing:5;}
</style>
<rect y="0" class="st0" width="940" height="460"/>
<g>
	<g transform="translate(50, 60)">
		<rect x="80.8" y="-10.1" class="st1" width="28" height="3.8"/>
		<rect x="83.4" y="-10.1" class="st1" width="15.3" height="3.8"/>
		<rect x="84.6" y="-10.1" class="st2" width="44.5" height="3.8"/>
		<rect x="88.4" y="-5" class="st2" width="21.6" height="3.8"/>
		<rect x="59.2" y="-5" class="st2" width="66.1" height="3.8"/>
		<rect x="66.8" y="0.1" class="st2" width="17.8" height="3.8"/>
		<rect x="55.4" y="0.1" class="st1" width="84" height="3.8"/>
		<rect x="74.4" y="0.1" class="st2" width="10.2" height="3.8"/>
		<rect x="50.3" y="5.1" class="st1" width="49.6" height="3.8"/>
		<rect x="143.1" y="5.1" class="st3" width="11.4" height="3.8"/>
		<rect x="41.4" y="5.1" class="st2" width="96.7" height="3.8"/>
		<rect x="96.1" y="10.2" class="st1" width="52.2" height="3.8"/>
		<rect x="43.9" y="10.2" class="st3" width="119.6" height="3.8"/>
		<rect x="92.3" y="15.3" class="st3" width="17.8" height="3.8"/>
		<rect x="56.6" y="15.3" class="st3" width="11.4" height="3.8"/>
		<rect x="24.8" y="20.4" class="st1" width="147.5" height="3.8"/>
		<rect x="94.8" y="20.4" class="st3" width="68.7" height="3.8"/>
		<rect x="23.6" y="25.5" class="st2" width="14" height="3.8"/>
		<rect x="23.6" y="25.5" class="st2" width="56" height="3.8"/>
		<rect x="134.2" y="25.5" class="st1" width="17.8" height="3.8"/>
		<rect x="126.6" y="25.5" class="st3" width="54.7" height="3.8"/>
		<rect x="120.2" y="25.5" class="st1" width="35.6" height="3.8"/>
		<rect x="29.9" y="30.6" class="st3" width="36.9" height="3.8"/>
		<rect x="17.2" y="30.6" class="st1" width="14" height="3.8"/>
		<rect x="33.7" y="30.6" class="st3" width="33.1" height="3.8"/>
		<rect x="138" y="30.6" class="st3" width="47.1" height="3.8"/>
		<rect x="134.2" y="30.6" class="st1" width="38.2" height="3.8"/>
		<rect x="136.8" y="30.6" class="st1" width="48.3" height="3.8"/>
		<rect x="38.8" y="35.7" class="st3" width="7.6" height="3.8"/>
		<rect x="22.3" y="35.7" class="st3" width="24.2" height="3.8"/>
		<rect x="148.2" y="35.7" class="st3" width="38.2" height="3.8"/>
		<rect x="150.8" y="35.7" class="st2" width="7.6" height="3.8"/>
		<rect x="153.3" y="35.7" class="st1" width="30.5" height="3.8"/>
		<rect x="17.2" y="40.8" class="st2" width="31.8" height="3.8"/>
		<rect x="19.8" y="40.8" class="st1" width="12.7" height="3.8"/>
		<rect x="26.1" y="40.8" class="st1" width="21.6" height="3.8"/>
		<rect x="163.5" y="40.8" class="st3" width="28" height="3.8"/>
		<rect x="158.4" y="40.8" class="st2" width="12.7" height="3.8"/>
		<rect x="150.8" y="40.8" class="st2" width="35.6" height="3.8"/>
		<rect x="15.9" y="45.9" class="st1" width="34.3" height="3.8"/>
		<rect x="28.7" y="45.9" class="st3" width="14" height="3.8"/>
		<rect x="42.6" y="45.9" class="st1" width="8.9" height="3.8"/>
		<rect x="155.9" y="45.9" class="st1" width="26.7" height="3.8"/>
		<rect x="154.6" y="45.9" class="st1" width="26.7" height="3.8"/>
		<rect x="26.1" y="50.9" class="st3" width="21.6" height="3.8"/>
		<rect x="14.7" y="50.9" class="st2" width="28" height="3.8"/>
		<rect x="15.9" y="50.9" class="st3" width="10.2" height="3.8"/>
		<rect x="163.5" y="50.9" class="st1" width="11.4" height="3.8"/>
		<rect x="4.5" y="56" class="st3" width="25.4" height="3.8"/>
		<rect x="8.3" y="56" class="st3" width="24.2" height="3.8"/>
		<rect x="18.5" y="56" class="st3" width="25.4" height="3.8"/>
		<rect x="157.1" y="56" class="st3" width="8.9" height="3.8"/>
		<rect x="157.1" y="56" class="st3" width="8.9" height="3.8"/>
		<rect x="8.3" y="61.1" class="st1" width="34.3" height="3.8"/>
		<rect x="12.1" y="61.1" class="st1" width="7.6" height="3.8"/>
		<rect x="9.6" y="61.1" class="st1" width="29.3" height="3.8"/>
		<rect x="10.8" y="66.2" class="st3" width="21.6" height="3.8"/>
		<rect x="4.5" y="66.2" class="st3" width="14" height="3.8"/>
		<rect x="17.2" y="66.2" class="st1" width="21.6" height="3.8"/>
		<rect x="8.3" y="71.3" class="st2" width="16.5" height="3.8"/>
		<rect x="9.6" y="71.3" class="st3" width="11.4" height="3.8"/>
		<rect x="8.3" y="76.4" class="st2" width="12.7" height="3.8"/>
		<rect x="106.2" y="76.4" class="st1" width="54.7" height="3.8"/>
		<rect x="107.5" y="76.4" class="st2" width="48.3" height="3.8"/>
		<rect x="19.8" y="81.5" class="st1" width="15.3" height="3.8"/>
		<rect x="7" y="81.5" class="st3" width="15.3" height="3.8"/>
		<rect x="119" y="81.5" class="st1" width="43.2" height="3.8"/>
		<rect x="101.2" y="81.5" class="st2" width="57.2" height="3.8"/>
		<rect x="111.3" y="81.5" class="st2" width="19.1" height="3.8"/>
		<rect x="7" y="86.6" class="st2" width="30.5" height="3.8"/>
		<rect x="3.2" y="86.6" class="st3" width="19.1" height="3.8"/>
		<rect x="-0.6" y="86.6" class="st3" width="20.4" height="3.8"/>
		<rect x="113.9" y="86.6" class="st3" width="49.6" height="3.8"/>
		<rect x="105" y="86.6" class="st1" width="25.4" height="3.8"/>
		<rect x="9.6" y="91.6" class="st1" width="25.4" height="3.8"/>
		<rect x="101.2" y="91.6" class="st3" width="26.7" height="3.8"/>
		<rect x="124.1" y="91.6" class="st1" width="26.7" height="3.8"/>
		<rect x="12.1" y="96.7" class="st3" width="15.3" height="3.8"/>
		<rect x="0.7" y="96.7" class="st1" width="28" height="3.8"/>
		<rect x="112.6" y="96.7" class="st2" width="28" height="3.8"/>
		<rect x="116.4" y="96.7" class="st3" width="40.7" height="3.8"/>
		<rect x="111.3" y="96.7" class="st3" width="44.5" height="3.8"/>
		<rect x="17.2" y="101.8" class="st3" width="12.7" height="3.8"/>
		<rect x="12.1" y="101.8" class="st1" width="22.9" height="3.8"/>
		<rect x="5.8" y="101.8" class="st2" width="30.5" height="3.8"/>
		<rect x="133" y="101.8" class="st1" width="19.1" height="3.8"/>
		<rect x="115.1" y="101.8" class="st1" width="36.9" height="3.8"/>
		<rect x="108.8" y="101.8" class="st1" width="50.9" height="3.8"/>
		<rect x="3.2" y="106.9" class="st3" width="30.5" height="3.8"/>
		<rect x="12.1" y="106.9" class="st2" width="24.2" height="3.8"/>
		<rect x="23.6" y="112" class="st1" width="16.5" height="3.8"/>
		<rect x="10.8" y="112" class="st2" width="22.9" height="3.8"/>
		<rect x="36.3" y="117.1" class="st1" width="7.6" height="3.8"/>
		<rect x="17.2" y="117.1" class="st1" width="26.7" height="3.8"/>
		<rect x="7" y="117.1" class="st3" width="34.3" height="3.8"/>
		<rect x="157.1" y="117.1" class="st1" width="8.9" height="3.8"/>
		<rect x="157.1" y="117.1" class="st3" width="7.6" height="3.8"/>
		<rect x="33.7" y="122.2" class="st2" width="11.4" height="3.8"/>
		<rect x="12.1" y="122.2" class="st2" width="28" height="3.8"/>
		<rect x="158.4" y="122.2" class="st3" width="11.4" height="3.8"/>
		<rect x="154.6" y="122.2" class="st1" width="14" height="3.8"/>
		<rect x="8.3" y="127.3" class="st1" width="25.4" height="3.8"/>
		<rect x="28.7" y="127.3" class="st3" width="16.5" height="3.8"/>
		<rect x="26.1" y="127.3" class="st2" width="16.5" height="3.8"/>
		<rect x="150.8" y="127.3" class="st3" width="17.8" height="3.8"/>
		<rect x="159.7" y="127.3" class="st2" width="25.4" height="3.8"/>
		<rect x="28.7" y="132.3" class="st3" width="28" height="3.8"/>
		<rect x="37.6" y="132.3" class="st2" width="16.5" height="3.8"/>
		<rect x="149.5" y="132.3" class="st2" width="40.7" height="3.8"/>
		<rect x="155.9" y="132.3" class="st3" width="35.6" height="3.8"/>
		<rect x="13.4" y="137.4" class="st1" width="42" height="3.8"/>
		<rect x="14.7" y="137.4" class="st3" width="40.7" height="3.8"/>
		<rect x="47.7" y="137.4" class="st2" width="8.9" height="3.8"/>
		<rect x="145.7" y="137.4" class="st3" width="42" height="3.8"/>
		<rect x="150.8" y="137.4" class="st3" width="36.9" height="3.8"/>
		<rect x="33.7" y="142.5" class="st3" width="36.9" height="3.8"/>
		<rect x="31.2" y="142.5" class="st1" width="21.6" height="3.8"/>
		<rect x="35" y="142.5" class="st1" width="16.5" height="3.8"/>
		<rect x="158.4" y="142.5" class="st2" width="21.6" height="3.8"/>
		<rect x="150.8" y="142.5" class="st1" width="20.4" height="3.8"/>
		<rect x="135.5" y="142.5" class="st1" width="44.5" height="3.8"/>
		<rect x="35" y="147.6" class="st3" width="40.7" height="3.8"/>
		<rect x="19.8" y="147.6" class="st2" width="38.2" height="3.8"/>
		<rect x="22.3" y="147.6" class="st3" width="58.5" height="3.8"/>
		<rect x="136.8" y="147.6" class="st1" width="26.7" height="3.8"/>
		<rect x="139.3" y="147.6" class="st2" width="40.7" height="3.8"/>
		<rect x="40.1" y="152.7" class="st2" width="49.6" height="3.8"/>
		<rect x="51.6" y="152.7" class="st2" width="57.2" height="3.8"/>
		<rect x="80.8" y="152.7" class="st3" width="25.4" height="3.8"/>
		<rect x="69.4" y="157.8" class="st1" width="24.2" height="3.8"/>
		<rect x="35" y="157.8" class="st1" width="138.6" height="3.8"/>
		<rect x="38.8" y="162.9" class="st1" width="118.3" height="3.8"/>
		<rect x="57.9" y="162.9" class="st2" width="49.6" height="3.8"/>
		<rect x="43.9" y="168" class="st1" width="97.9" height="3.8"/>
		<rect x="101.2" y="168" class="st2" width="15.3" height="3.8"/>
		<rect x="54.1" y="173" class="st3" width="85.2" height="3.8"/>
		<rect x="85.9" y="173" class="st1" width="33.1" height="3.8"/>
		<rect x="85.9" y="173" class="st2" width="10.2" height="3.8"/>
		<rect x="80.8" y="178.1" class="st3" width="31.8" height="3.8"/>
		<rect x="60.5" y="178.1" class="st1" width="44.5" height="3.8"/>
		<rect x="68.1" y="178.1" class="st3" width="50.9" height="3.8"/>
		<rect x="98.6" y="183.2" class="st3" width="15.3" height="3.8"/>
		<rect x="80.8" y="183.2" class="st2" width="50.9" height="3.8"/>
		<rect x="82.1" y="183.2" class="st3" width="34.3" height="3.8"/>
	</g>
	<g transform="translate(230, 60)">
		<circle class="st4" cx="139.2" cy="-12.7" r="3.1"/>
		<circle class="st4" cx="128.6" cy="-6.9" r="2.8"/>
		<circle class="st4" cx="118.1" cy="14.1" r="2"/>
		<circle class="st4" cx="226.7" cy="174.8" r="1.8"/>
		<circle class="st5" cx="164.4" cy="72.1" r="3.9"/>
		<circle class="st5" cx="107.1" cy="92.4" r="2.9"/>
		<circle class="st4" cx="146.4" cy="-9.5" r="2.6"/>
		<circle class="st6" cx="66.1" cy="160.5" r="2.4"/>
		<circle class="st5" cx="117.8" cy="115.5" r="2.9"/>
		<circle class="st5" cx="104.5" cy="74.9" r="3.2"/>
		<circle class="st5" cx="164.3" cy="71.6" r="2.5"/>
		<circle class="st4" cx="117.2" cy="53.1" r="3.5"/>
		<circle class="st5" cx="179.8" cy="75.9" r="3.5"/>
		<circle class="st4" cx="141.7" cy="9.2" r="2.6"/>
		<circle class="st5" cx="97.3" cy="81.9" r="3.6"/>
		<circle class="st5" cx="109.2" cy="114.5" r="3.5"/>
		<circle class="st4" cx="106.9" cy="38.1" r="2.6"/>
		<circle class="st6" cx="80.9" cy="140.5" r="3.9"/>
		<circle class="st4" cx="152.1" cy="-10.5" r="2.9"/>
		<circle class="st5" cx="82.7" cy="108" r="2.4"/>
		<circle class="st5" cx="168.3" cy="68.4" r="2.3"/>
		<circle class="st4" cx="210.7" cy="147" r="2.8"/>
		<circle class="st5" cx="159.5" cy="102.9" r="3.2"/>
		<circle class="st5" cx="171.7" cy="118.2" r="2.9"/>
		<circle class="st5" cx="191" cy="111.7" r="1.9"/>
		<circle class="st6" cx="86.1" cy="126.4" r="2.7"/>
		<circle class="st5" cx="95.6" cy="103.7" r="1.9"/>
		<circle class="st4" cx="163.3" cy="48.7" r="2.5"/>
		<circle class="st5" cx="95.6" cy="71.2" r="2.6"/>
		<circle class="st4" cx="131.6" cy="30.5" r="2"/>
		<circle class="st6" cx="70" cy="129.9" r="3.3"/>
		<circle class="st4" cx="129.3" cy="28.1" r="2.6"/>
		<circle class="st4" cx="148.5" cy="35.5" r="3.2"/>
		<circle class="st4" cx="118.4" cy="52.9" r="3.3"/>
		<circle class="st5" cx="132" cy="103.9" r="2"/>
		<circle class="st5" cx="93.6" cy="91.9" r="2.1"/>
		<circle class="st6" cx="79.2" cy="122.7" r="2.4"/>
		<circle class="st4" cx="220.1" cy="155.7" r="3.7"/>
		<circle class="st4" cx="148.4" cy="5" r="2.4"/>
		<circle class="st5" cx="165.4" cy="122.1" r="3.6"/>
		<circle class="st5" cx="191.8" cy="88" r="2.9"/>
		
			<ellipse transform="matrix(1 -4.761768e-03 4.761768e-03 1 -0.8938 0.2066)" class="st6" cx="42.9" cy="187.8" rx="2.4" ry="2.4"/>
		<circle class="st5" cx="165.4" cy="75.3" r="3.4"/>
		<circle class="st4" cx="139.3" cy="10.7" r="2.2"/>
		<circle class="st6" cx="86" cy="138" r="3.6"/>
		<circle class="st5" cx="200.3" cy="111.8" r="3.6"/>
		<circle class="st6" cx="76.7" cy="144.7" r="4"/>
		<circle class="st6" cx="60.7" cy="152.1" r="2.6"/>
		<circle class="st4" cx="230.2" cy="187.9" r="2.1"/>
		<circle class="st5" cx="181.3" cy="99.6" r="2.3"/>
		<circle class="st4" cx="162.1" cy="54.5" r="2.5"/>
		<circle class="st5" cx="178.3" cy="64.3" r="3.9"/>
		<circle class="st4" cx="115.6" cy="19.9" r="2.6"/>
		<circle class="st4" cx="149.5" cy="-12.8" r="2.5"/>
		<circle class="st5" cx="113.8" cy="60.3" r="2.1"/>
		<circle class="st4" cx="222.7" cy="172" r="2.5"/>
		<circle class="st5" cx="180.3" cy="98.9" r="2.8"/>
		<circle class="st5" cx="176.8" cy="76.9" r="3.9"/>
		<circle class="st6" cx="62.3" cy="186" r="2.9"/>
		<circle class="st5" cx="178.2" cy="65.4" r="3.2"/>
		<circle class="st4" cx="143.6" cy="16.6" r="2.4"/>
		<circle class="st6" cx="59.2" cy="175.2" r="3.6"/>
		<circle class="st4" cx="155.3" cy="3.8" r="4"/>
		<circle class="st5" cx="102.5" cy="103.5" r="3.6"/>
		<circle class="st5" cx="98.4" cy="68" r="2.4"/>
		<circle class="st4" cx="143" cy="-10.7" r="2.3"/>
		<circle class="st4" cx="121.1" cy="12.6" r="4"/>
		<circle class="st5" cx="97.7" cy="79.7" r="2.2"/>
		<circle class="st5" cx="91.4" cy="99" r="3.1"/>
		<circle class="st6" cx="76.4" cy="120.1" r="2.6"/>
		<circle class="st5" cx="135.8" cy="109.5" r="2.4"/>
		<circle class="st5" cx="107.8" cy="82.5" r="3"/>
		<circle class="st4" cx="152.1" cy="40.9" r="1.9"/>
		<circle class="st6" cx="54.9" cy="175" r="3.7"/>
		<circle class="st5" cx="182.7" cy="93.1" r="4"/>
		<circle class="st5" cx="105.2" cy="64.6" r="3.7"/>
		<circle class="st5" cx="107.2" cy="122.8" r="3.8"/>
		<circle class="st4" cx="159.1" cy="48.2" r="3.5"/>
		<circle class="st5" cx="99.6" cy="68.5" r="1.9"/>
		<circle class="st5" cx="154.3" cy="123.3" r="3.8"/>
		<circle class="st4" cx="149.5" cy="-11.3" r="3.7"/>
		<circle class="st5" cx="179.8" cy="86.8" r="2.3"/>
		<circle class="st5" cx="110.8" cy="60.8" r="2.8"/>
		<circle class="st4" cx="156.2" cy="26.4" r="3.8"/>
		<circle class="st5" cx="138.9" cy="121.6" r="2.9"/>
		<circle class="st5" cx="174.1" cy="116.9" r="3.9"/>
		<circle class="st5" cx="168" cy="68.1" r="3"/>
		<circle class="st6" cx="72.3" cy="139.1" r="2.9"/>
		<circle class="st5" cx="184.2" cy="99.7" r="3.7"/>
		
			<ellipse transform="matrix(0.1602 -0.9871 0.9871 0.1602 60.6448 286.1859)" class="st5" cx="198.5" cy="107.5" rx="1.8" ry="1.8"/>
		<circle class="st5" cx="104.4" cy="75.9" r="2.6"/>
		<circle class="st5" cx="168.3" cy="122.9" r="2.3"/>
		<circle class="st4" cx="230.1" cy="181.2" r="2.7"/>
		<circle class="st4" cx="101.5" cy="54.4" r="3.6"/>
		<circle class="st5" cx="165.3" cy="71.2" r="2.3"/>
		<circle class="st5" cx="94.3" cy="79" r="3.7"/>
		<circle class="st4" cx="220.7" cy="183.6" r="2.9"/>
		<circle class="st5" cx="85.2" cy="120.4" r="3"/>
		<circle class="st5" cx="91.9" cy="77.1" r="4"/>
		<circle class="st4" cx="168" cy="31.2" r="2.6"/>
		<circle class="st5" cx="154" cy="114.8" r="3.3"/>
		<circle class="st4" cx="211.7" cy="173.4" r="2.9"/>
		<circle class="st5" cx="190.9" cy="121" r="2.8"/>
		<circle class="st4" cx="134.1" cy="-10.8" r="2.3"/>
		<circle class="st5" cx="200.8" cy="105.3" r="4"/>
		<circle class="st5" cx="130.1" cy="113.3" r="1.8"/>
		<circle class="st4" cx="115.4" cy="20.6" r="1.9"/>
		<circle class="st4" cx="159.8" cy="12.9" r="2"/>
		<circle class="st4" cx="158.7" cy="48.5" r="2.3"/>
		<circle class="st4" cx="105" cy="55.2" r="2.1"/>
		<circle class="st4" cx="211.6" cy="161.4" r="2.7"/>
		<circle class="st4" cx="147.6" cy="9.4" r="3.8"/>
		<circle class="st4" cx="145.2" cy="6.5" r="4.1"/>
		<circle class="st6" cx="86.9" cy="128.7" r="2.7"/>
		<circle class="st4" cx="121.3" cy="6.4" r="2.8"/>
		<circle class="st6" cx="62.4" cy="142.4" r="3.3"/>
		<circle class="st5" cx="173.8" cy="106.5" r="3.2"/>
		<circle class="st4" cx="200" cy="147.4" r="2.1"/>
		<circle class="st4" cx="130.7" cy="-3.5" r="3.6"/>
		<circle class="st5" cx="180.2" cy="68.8" r="2"/>
		<circle class="st4" cx="117.6" cy="12.9" r="3.7"/>
		<circle class="st6" cx="57.4" cy="176.1" r="2.9"/>
		<circle class="st5" cx="86.9" cy="106.2" r="2"/>
		<circle class="st6" cx="55.4" cy="176.1" r="3.1"/>
		<circle class="st4" cx="133.7" cy="-13.8" r="2.1"/>
		<circle class="st4" cx="111.2" cy="24.7" r="3.1"/>
		<circle class="st5" cx="191.3" cy="99.8" r="2.5"/>
		<circle class="st5" cx="182.1" cy="84.9" r="2.9"/>
		<circle class="st5" cx="121.4" cy="118.1" r="2"/>
		<circle class="st4" cx="195.9" cy="133.8" r="2"/>
		<circle class="st4" cx="172.3" cy="47.1" r="2.1"/>
		<circle class="st4" cx="121.4" cy="47.5" r="4"/>
		<circle class="st5" cx="108.7" cy="77.3" r="2.4"/>
		<circle class="st4" cx="166.7" cy="27.1" r="2.4"/>
		<circle class="st4" cx="210.2" cy="181.2" r="3.4"/>
		<circle class="st6" cx="73" cy="139.3" r="1.9"/>
		<circle class="st4" cx="157.6" cy="37.6" r="2.1"/>
		<circle class="st5" cx="75.3" cy="110.7" r="2.9"/>
		<circle class="st4" cx="212" cy="159.3" r="1.9"/>
		<circle class="st4" cx="229" cy="173" r="2.9"/>
		<circle class="st5" cx="118.2" cy="106.3" r="1.8"/>
		<circle class="st6" cx="88.4" cy="135.8" r="4.1"/>
		<circle class="st4" cx="157.4" cy="4.5" r="4.1"/>
		<circle class="st4" cx="158.9" cy="30.1" r="3.2"/>
		<circle class="st6" cx="74.2" cy="127.7" r="2.9"/>
		<circle class="st4" cx="200" cy="153" r="2.3"/>
		<circle class="st4" cx="136.5" cy="13.2" r="2.5"/>
		<circle class="st5" cx="84.9" cy="120.5" r="3.2"/>
		<circle class="st4" cx="113.6" cy="34.4" r="3.9"/>
		<circle class="st4" cx="130.4" cy="8.8" r="2.8"/>
		<circle class="st5" cx="160.1" cy="109.2" r="3"/>
		<circle class="st5" cx="112.3" cy="68" r="2.5"/>
		<circle class="st4" cx="153.3" cy="45.1" r="3.5"/>
		<circle class="st5" cx="123.5" cy="118.2" r="3.3"/>
		<circle class="st5" cx="186.5" cy="91.7" r="3.1"/>
		<circle class="st5" cx="99.7" cy="110.6" r="3"/>
		<circle class="st5" cx="116.5" cy="62.6" r="3.5"/>
		<circle class="st4" cx="134.3" cy="22.7" r="3.4"/>
		<circle class="st5" cx="130.8" cy="110.3" r="2.7"/>
		<circle class="st4" cx="163.2" cy="22.4" r="1.9"/>
		<circle class="st4" cx="118.7" cy="5.9" r="3.1"/>
		<circle class="st5" cx="153.6" cy="120.5" r="3.9"/>
		<circle class="st4" cx="151.7" cy="9.9" r="3.4"/>
		<circle class="st4" cx="206.6" cy="145.8" r="2.1"/>
		<circle class="st4" cx="220.6" cy="177.4" r="2.7"/>
		<circle class="st4" cx="143.1" cy="12.3" r="2.4"/>
		<circle class="st4" cx="116.3" cy="23.5" r="3.3"/>
		<circle class="st4" cx="136.5" cy="2.1" r="2.7"/>
		<circle class="st5" cx="189.3" cy="86.7" r="2.4"/>
		<circle class="st4" cx="137.9" cy="-11.7" r="2"/>
		<circle class="st5" cx="116.7" cy="122.8" r="2.1"/>
		<circle class="st5" cx="91.6" cy="107.9" r="3.7"/>
		<circle class="st5" cx="99.3" cy="120.2" r="3.8"/>
		<circle class="st4" cx="199.4" cy="118.8" r="3.2"/>
		<ellipse transform="matrix(1 -4.761740e-03 4.761740e-03 1 -0.894 0.21)" class="st6" cx="43.7" cy="187.9" rx="2.2" ry="2.2"/>
		<circle class="st4" cx="107.5" cy="44.7" r="1.9"/>
		<circle class="st5" cx="116.6" cy="69.1" r="3.9"/>
		<circle class="st4" cx="201.3" cy="146.4" r="3.6"/>
		<circle class="st6" cx="70.7" cy="135.6" r="2.6"/>
		<circle class="st5" cx="196.6" cy="111.3" r="3.1"/>
		<circle class="st5" cx="149.5" cy="111.5" r="3.6"/>
		<circle class="st5" cx="114.5" cy="73.6" r="3.6"/>
		<circle class="st5" cx="91.4" cy="120.9" r="2.9"/>
		<circle class="st5" cx="193.7" cy="112.5" r="3.9"/>
		<circle class="st4" cx="104.1" cy="42.3" r="2.2"/>
		<circle class="st5" cx="182.1" cy="102.4" r="2.5"/>
		<circle class="st6" cx="88.1" cy="131.8" r="1.9"/>
		<circle class="st4" cx="109.5" cy="42.1" r="3.3"/>
		<circle class="st5" cx="131.1" cy="116.9" r="3.6"/>
		<circle class="st5" cx="80.2" cy="117.2" r="2.2"/>
		<circle class="st5" cx="190.7" cy="109.5" r="3.7"/>
		<circle class="st5" cx="84.5" cy="111.8" r="3"/>
		<circle class="st5" cx="133.2" cy="107.6" r="3.1"/>
		<circle class="st5" cx="95.4" cy="64.1" r="4"/>
		<circle class="st4" cx="127.9" cy="9.2" r="2.4"/>
		<circle class="st5" cx="128.4" cy="107.5" r="4.1"/>
		<circle class="st5" cx="169.6" cy="84.2" r="1.9"/>
		<circle class="st5" cx="160.6" cy="119.3" r="3.3"/>
		<circle class="st5" cx="175.4" cy="66.2" r="1.9"/>
		<circle class="st5" cx="123" cy="111.5" r="3.3"/>
		<circle class="st4" cx="166.7" cy="29.1" r="3.2"/>
		<circle class="st5" cx="172.9" cy="106.2" r="3.4"/>
		<circle class="st4" cx="112.1" cy="23.4" r="2.5"/>
		<circle class="st5" cx="178" cy="77.8" r="3"/>
		<circle class="st6" cx="69.1" cy="173.4" r="2.7"/>
		<circle class="st5" cx="83.9" cy="111.5" r="2.1"/>
		<circle class="st4" cx="202.2" cy="160.3" r="2"/>
		<circle class="st5" cx="104.5" cy="121" r="4"/>
		<circle class="st4" cx="112.8" cy="41.7" r="1.9"/>
		<circle class="st4" cx="220.2" cy="153.9" r="3.2"/>
		<circle class="st4" cx="119.2" cy="3.4" r="2.3"/>
		<circle class="st4" cx="165.2" cy="22.8" r="2.4"/>
		<circle class="st4" cx="201.2" cy="120.2" r="3.6"/>
		<circle class="st6" cx="64.2" cy="155.7" r="2.4"/>
		<circle class="st4" cx="161.9" cy="46.3" r="3.4"/>
		<circle class="st4" cx="198.4" cy="121.6" r="3.4"/>
		<circle class="st4" cx="204.7" cy="123.5" r="2.2"/>
		<circle class="st5" cx="175.1" cy="75.3" r="2.6"/>
		<circle class="st5" cx="194.7" cy="97" r="2"/>
		<circle class="st4" cx="138.3" cy="-8.1" r="2.8"/>
		<circle class="st5" cx="97.5" cy="99.7" r="3.8"/>
		<circle class="st4" cx="154.7" cy="49.9" r="2.8"/>
		<circle class="st5" cx="113.1" cy="71.2" r="3.1"/>
		<circle class="st5" cx="151.6" cy="106.9" r="2.5"/>
		<circle class="st4" cx="207.9" cy="138.1" r="2.9"/>
		<circle class="st4" cx="175" cy="48.1" r="3.9"/>
		<circle class="st6" cx="65.4" cy="133.5" r="2.3"/>
		<circle class="st4" cx="191.2" cy="133.7" r="2.4"/>
		<circle class="st5" cx="202.2" cy="109.3" r="3.9"/>
		<circle class="st5" cx="98.2" cy="81.6" r="3.9"/>
		<circle class="st5" cx="87.7" cy="106.2" r="3.3"/>
		<circle class="st4" cx="162.9" cy="31.5" r="2.7"/>
		<circle class="st6" cx="66.7" cy="165.1" r="3"/>
		<circle class="st4" cx="200.7" cy="147.6" r="2.4"/>
		<circle class="st5" cx="109.7" cy="117" r="3.2"/>
		<circle class="st6" cx="67" cy="162.9" r="2.7"/>
		<circle class="st5" cx="190.6" cy="101" r="1.9"/>
		<circle class="st5" cx="156.9" cy="118.4" r="3.3"/>
		<circle class="st4" cx="159.1" cy="52.5" r="2.5"/>
		<circle class="st4" cx="203.2" cy="163.3" r="1.9"/>
		<circle class="st5" cx="180.3" cy="87.4" r="4"/>
		<circle class="st4" cx="209.6" cy="157.4" r="3.6"/>
		<circle class="st5" cx="145.8" cy="122.9" r="3.1"/>
		<circle class="st4" cx="175.7" cy="46.7" r="3.9"/>
		<circle class="st5" cx="90" cy="79.1" r="3.3"/>
		<circle class="st5" cx="165.8" cy="69.8" r="3.5"/>
		<circle class="st4" cx="122.1" cy="19.6" r="3.1"/>
		<circle class="st4" cx="109" cy="36.5" r="3.3"/>
		<circle class="st5" cx="196.5" cy="115.6" r="3.1"/>
		<circle class="st4" cx="112.1" cy="28.9" r="2.5"/>
		<circle class="st6" cx="76.6" cy="117.7" r="2.6"/>
		<circle class="st4" cx="178.9" cy="54" r="2.9"/>
		<circle class="st4" cx="136.3" cy="-10" r="3.4"/>
		<circle class="st4" cx="229" cy="187.6" r="3"/>
		<circle class="st6" cx="54.3" cy="188.2" r="4"/>
		<circle class="st5" cx="151.8" cy="108.8" r="1.8"/>
		<circle class="st4" cx="130.4" cy="26" r="3.7"/>
		<circle class="st4" cx="158" cy="38.7" r="3.6"/>
		<circle class="st5" cx="100.6" cy="111.7" r="3.5"/>
		<circle class="st6" cx="74.3" cy="116.7" r="3.6"/>
		<circle class="st4" cx="104.2" cy="41.9" r="3.5"/>
		<circle class="st4" cx="152.5" cy="29.6" r="4"/>
		<circle class="st4" cx="209.1" cy="184.7" r="3.4"/>
		<circle class="st5" cx="169.2" cy="116.3" r="1.9"/>
		<circle class="st5" cx="83.6" cy="117.3" r="2.1"/>
		<circle class="st4" cx="146.5" cy="8.9" r="2.6"/>
		<circle class="st5" cx="98.8" cy="83.1" r="4"/>
		<circle class="st4" cx="123" cy="46.4" r="3.4"/>
		<circle class="st5" cx="116.6" cy="108.6" r="3.7"/>
		<circle class="st5" cx="81.6" cy="113" r="1.9"/>
		<circle class="st5" cx="180.6" cy="64.1" r="3.9"/>
		<circle class="st4" cx="153.4" cy="36.3" r="3"/>
		<circle class="st5" cx="174.7" cy="85.1" r="4"/>
		<circle class="st6" cx="60.7" cy="145.4" r="3.8"/>
		<circle class="st6" cx="57" cy="173.6" r="3.2"/>
		<circle class="st5" cx="174.7" cy="118.2" r="3.6"/>
		<circle class="st5" cx="84.1" cy="89.6" r="3.5"/>
		<circle class="st5" cx="118.4" cy="58.6" r="2.1"/>
		<circle class="st5" cx="119.6" cy="121.6" r="3.9"/>
		<circle class="st4" cx="157.3" cy="51.2" r="3.9"/>
		<circle class="st5" cx="190.2" cy="97.8" r="2.8"/>
		<circle class="st4" cx="205.3" cy="135" r="3.5"/>
		<circle class="st5" cx="165.2" cy="61" r="1.9"/>
		<circle class="st5" cx="86.8" cy="114.4" r="2.1"/>
		<circle class="st4" cx="224.7" cy="164.6" r="3.9"/>
		<circle class="st5" cx="171.2" cy="117.6" r="2.2"/>
		<circle class="st5" cx="97.3" cy="105.2" r="2.1"/>
		<circle class="st5" cx="78.5" cy="110.6" r="3.6"/>
		<circle class="st4" cx="143.8" cy="-13.1" r="2.2"/>
		<circle class="st4" cx="147.8" cy="1" r="2.6"/>
		<circle class="st6" cx="64.7" cy="147.7" r="1.9"/>
		<circle class="st4" cx="148.2" cy="27.5" r="2.2"/>
		<circle class="st4" cx="139.5" cy="-14.5" r="3.2"/>
		<circle class="st5" cx="168.8" cy="106" r="3.9"/>
		<circle class="st4" cx="226.1" cy="186.8" r="3.7"/>
		<circle class="st6" cx="79.8" cy="127.1" r="2.6"/>
		<circle class="st4" cx="159.2" cy="27" r="3.6"/>
		<circle class="st6" cx="69.6" cy="140.9" r="3.4"/>
		<circle class="st4" cx="208" cy="151.5" r="1.9"/>
		<circle class="st4" cx="207.7" cy="122.7" r="3"/>
		<circle class="st4" cx="161.4" cy="15.6" r="3.8"/>
		<circle class="st4" cx="132.9" cy="16.6" r="1.8"/>
		<circle class="st5" cx="182.9" cy="122.9" r="3.4"/>
		<circle class="st5" cx="189.2" cy="115" r="1.9"/>
		<circle class="st4" cx="196.4" cy="153.5" r="3.7"/>
		<circle class="st5" cx="189.9" cy="114.7" r="1.8"/>
		<circle class="st5" cx="195.5" cy="94.7" r="2"/>
		<circle class="st6" cx="58.7" cy="170.6" r="4"/>
		<circle class="st4" cx="177.2" cy="47.8" r="2.4"/>
		<circle class="st4" cx="215.5" cy="169.2" r="2.9"/>
		<circle class="st5" cx="120" cy="61.7" r="2.4"/>
		<circle class="st5" cx="202.1" cy="107.4" r="3.1"/>
		<circle class="st4" cx="199.2" cy="148.5" r="3.3"/>
		<circle class="st4" cx="162.5" cy="48.7" r="2.3"/>
		<circle class="st5" cx="185.6" cy="90.5" r="2.7"/>
		<circle class="st6" cx="68.2" cy="147.8" r="3.2"/>
		<circle class="st5" cx="134.1" cy="118.1" r="3"/>
		<circle class="st6" cx="81.7" cy="119.4" r="2.3"/>
		<circle class="st4" cx="133.5" cy="23" r="2.9"/>
		<circle class="st4" cx="158.4" cy="2.7" r="3.4"/>
		<circle class="st4" cx="131.1" cy="9.7" r="2.4"/>
		<circle class="st6" cx="88.4" cy="130.2" r="3.8"/>
		<circle class="st5" cx="152.8" cy="110.5" r="3.6"/>
		<circle class="st4" cx="211.7" cy="186.4" r="2.1"/>
		<circle class="st5" cx="182.3" cy="102.3" r="2.2"/>
		<circle class="st5" cx="154.5" cy="123.3" r="2.5"/>
		<circle class="st5" cx="166.8" cy="112.1" r="1.8"/>
		<circle class="st6" cx="64.7" cy="178.6" r="3.8"/>
		<circle class="st4" cx="148" cy="23.5" r="3"/>
		<circle class="st4" cx="150.3" cy="-9.3" r="2.8"/>
		<circle class="st4" cx="116.8" cy="44.9" r="3.1"/>
		<circle class="st4" cx="133.5" cy="-5.7" r="3.4"/>
		<circle class="st5" cx="77.7" cy="106.9" r="3.8"/>
		<circle class="st4" cx="230.1" cy="185.5" r="2.1"/>
		<circle class="st5" cx="90.6" cy="105.9" r="2.8"/>
		<circle class="st4" cx="119.3" cy="22.5" r="2.8"/>
		<circle class="st4" cx="126.4" cy="35.7" r="2.6"/>
		<circle class="st6" cx="75.1" cy="153.9" r="3.5"/>
		<circle class="st5" cx="188.5" cy="117" r="2.1"/>
		<circle class="st5" cx="194.3" cy="119.9" r="3.7"/>
		<circle class="st4" cx="225.2" cy="184.4" r="2"/>
		<circle class="st4" cx="160.5" cy="50" r="2.5"/>
		<circle class="st4" cx="113" cy="36.6" r="3"/>
		<circle class="st6" cx="45.1" cy="182.5" r="1.9"/>
		<circle class="st5" cx="177.8" cy="61" r="2.7"/>
		<circle class="st5" cx="119.5" cy="113.4" r="4.1"/>
		<circle class="st5" cx="97.2" cy="63.4" r="3.2"/>
		<circle class="st4" cx="193.4" cy="140.6" r="2"/>
		<circle class="st5" cx="192.2" cy="86.5" r="2.9"/>
		<circle class="st5" cx="106.1" cy="91.4" r="2.2"/>
		<circle class="st5" cx="137.6" cy="105.8" r="2.9"/>
		<circle class="st4" cx="110" cy="28.8" r="2.4"/>
		<circle class="st4" cx="194.4" cy="139.7" r="3.2"/>
		<circle class="st5" cx="176.7" cy="59.9" r="2"/>
		<circle class="st4" cx="161.5" cy="48.1" r="4"/>
		<circle class="st6" cx="57.9" cy="164.3" r="2.9"/>
		<circle class="st4" cx="140.9" cy="-9.4" r="3.6"/>
		<circle class="st5" cx="114.7" cy="119.5" r="2.5"/>
		<circle class="st4" cx="212.6" cy="144.4" r="3.7"/>
		<circle class="st4" cx="201.9" cy="135.3" r="2.7"/>
		<circle class="st4" cx="233.1" cy="183.8" r="2.9"/>
		<circle class="st4" cx="153.2" cy="14.9" r="2.8"/>
		<circle class="st5" cx="176.7" cy="68.5" r="2.9"/>
		<circle class="st5" cx="174.5" cy="83.6" r="3.5"/>
		<circle class="st4" cx="104.9" cy="54.3" r="2.5"/>
		<circle class="st4" cx="143.1" cy="8.6" r="2.9"/>
		<circle class="st4" cx="114.1" cy="35.5" r="2.6"/>
		<circle class="st5" cx="111.9" cy="63.3" r="3.1"/>
		<circle class="st5" cx="117" cy="111.6" r="2.1"/>
		<circle class="st4" cx="130.8" cy="-2.1" r="2.1"/>
		<circle class="st4" cx="127.7" cy="28.9" r="2.4"/>
		<circle class="st5" cx="163" cy="107.6" r="2.1"/>
		<circle class="st5" cx="152.1" cy="115.3" r="1.9"/>
		<circle class="st5" cx="87.2" cy="105.6" r="3"/>
		<circle class="st4" cx="218.7" cy="160.5" r="3.8"/>
		<circle class="st4" cx="197" cy="143.6" r="2.2"/>
		<circle class="st5" cx="180.5" cy="97.7" r="1.9"/>
		<circle class="st5" cx="151.7" cy="105.6" r="3.9"/>
		<circle class="st5" cx="171.6" cy="77.7" r="3"/>
		<circle class="st4" cx="211.6" cy="149.5" r="2.8"/>
		<circle class="st4" cx="209.8" cy="166.1" r="2.6"/>
		<circle class="st6" cx="86.7" cy="141.8" r="3.3"/>
		<circle class="st5" cx="151.7" cy="112.2" r="3.5"/>
		<circle class="st5" cx="133.2" cy="112.1" r="2.6"/>
		<circle class="st5" cx="132.9" cy="105" r="3.2"/>
		<circle class="st4" cx="222.1" cy="156.5" r="3"/>
		<circle class="st5" cx="173" cy="91.9" r="4"/>
		<circle class="st4" cx="127" cy="12.9" r="2.7"/>
		<circle class="st4" cx="217.3" cy="167.5" r="2.2"/>
		<circle class="st4" cx="166.2" cy="27.8" r="2.9"/>
		<circle class="st5" cx="175.3" cy="86.4" r="2.3"/>
		<circle class="st5" cx="95.3" cy="118.7" r="2.4"/>
		<circle class="st6" cx="54.7" cy="171.7" r="1.8"/>
		<circle class="st5" cx="108" cy="80.7" r="3"/>
		<circle class="st4" cx="150.8" cy="19.8" r="2.5"/>
		<circle class="st4" cx="146.3" cy="-3.8" r="3.1"/>
		<circle class="st5" cx="84.7" cy="116.3" r="3.4"/>
		<circle class="st5" cx="98.5" cy="92.6" r="3"/>
		<circle class="st5" cx="181" cy="74" r="2.8"/>
		<circle class="st4" cx="131.1" cy="4.8" r="2"/>
		<circle class="st6" cx="79.3" cy="125.2" r="3.8"/>
		<circle class="st6" cx="63.6" cy="151.9" r="2.8"/>
		<circle class="st4" cx="140.5" cy="-1.2" r="2.7"/>
		<circle class="st4" cx="173.3" cy="51.6" r="3.2"/>
		<circle class="st4" cx="164.8" cy="16.5" r="4"/>
		<circle class="st4" cx="123.1" cy="2.4" r="2"/>
		<circle class="st5" cx="194.4" cy="107.8" r="4"/>
		<circle class="st4" cx="132" cy="4" r="3.4"/>
		<circle class="st4" cx="119" cy="10.9" r="1.9"/>
		<circle class="st4" cx="139.1" cy="10.1" r="3.7"/>
		<circle class="st6" cx="66.5" cy="160.4" r="3.3"/>
		<circle class="st4" cx="118.8" cy="36.4" r="3"/>
		<circle class="st4" cx="121.3" cy="52" r="2.2"/>
		<circle class="st5" cx="191.8" cy="105.6" r="2.7"/>
		<circle class="st6" cx="65.4" cy="142.6" r="2.8"/>
		<circle class="st5" cx="95.4" cy="60.7" r="3.7"/>
		<circle class="st4" cx="167.1" cy="45.2" r="2.4"/>
		<circle class="st4" cx="194.6" cy="133.9" r="2.9"/>
		<circle class="st4" cx="156.3" cy="-2.5" r="2.2"/>
		<circle class="st4" cx="152.7" cy="26.5" r="4"/>
	</g>
	<g transform="translate(410, 60)">
		<polyline class="st7" points="97.1,-1.2 97.1,42 97.1,85.3 97.1,128.5 97.1,171.8 137.8,42 178.5,85.3 219.2,42 259.9,-1.2 
			259.9,42 259.9,85.3 259.9,128.5 259.9,171.8 		"/>
		<path class="st8" d="M87-15.2h20.4c2.1,0,3.8,1.7,3.8,3.8V9c0,2.1-1.7,3.8-3.8,3.8H87c-2.1,0-3.8-1.7-3.8-3.8v-20.4
			C83.1-13.5,84.8-15.2,87-15.2z"/>
		<path class="st9" d="M87,28h20.4c2.1,0,3.8,1.7,3.8,3.8v20.4c0,2.1-1.7,3.8-3.8,3.8H87c-2.1,0-3.8-1.7-3.8-3.8V31.9
			C83.1,29.8,84.8,28,87,28z"/>
		<path class="st10" d="M87,71.3h20.4c2.1,0,3.8,1.7,3.8,3.8v20.4c0,2.1-1.7,3.8-3.8,3.8H87c-2.1,0-3.8-1.7-3.8-3.8V75.1
			C83.1,73,84.8,71.3,87,71.3z"/>
		<path class="st8" d="M87,114.5h20.4c2.1,0,3.8,1.7,3.8,3.8v20.4c0,2.1-1.7,3.8-3.8,3.8H87c-2.1,0-3.8-1.7-3.8-3.8v-20.4
			C83.1,116.2,84.8,114.5,87,114.5z"/>
		<path class="st8" d="M87,157.8h20.4c2.1,0,3.8,1.7,3.8,3.8V182c0,2.1-1.7,3.8-3.8,3.8H87c-2.1,0-3.8-1.7-3.8-3.8v-20.4
			C83.1,159.5,84.8,157.8,87,157.8z"/>
		<path class="st8" d="M127.7,28H148c2.1,0,3.8,1.7,3.8,3.8v20.4c0,2.1-1.7,3.8-3.8,3.8h-20.4c-2.1,0-3.8-1.7-3.8-3.8V31.9
			C123.8,29.8,125.5,28,127.7,28z"/>
		<path class="st10" d="M168.4,71.3h20.4c2.1,0,3.8,1.7,3.8,3.8v20.4c0,2.1-1.7,3.8-3.8,3.8h-20.4c-2.1,0-3.8-1.7-3.8-3.8V75.1
			C164.5,73,166.3,71.3,168.4,71.3z"/>
		<path class="st8" d="M209.1,28h20.4c2.1,0,3.8,1.7,3.8,3.8v20.4c0,2.1-1.7,3.8-3.8,3.8h-20.4c-2.1,0-3.8-1.7-3.8-3.8V31.9
			C205.2,29.8,207,28,209.1,28z"/>
		<path class="st10" d="M249.8-15.2h20.4c2.1,0,3.8,1.7,3.8,3.8V9c0,2.1-1.7,3.8-3.8,3.8h-20.4c-2.1,0-3.8-1.7-3.8-3.8v-20.4
			C246-13.5,247.7-15.2,249.8-15.2z"/>
		<path class="st8" d="M249.8,28h20.4c2.1,0,3.8,1.7,3.8,3.8v20.4c0,2.1-1.7,3.8-3.8,3.8h-20.4c-2.1,0-3.8-1.7-3.8-3.8V31.9
			C246,29.8,247.7,28,249.8,28z"/>
		<path class="st9" d="M249.8,71.3h20.4c2.1,0,3.8,1.7,3.8,3.8v20.4c0,2.1-1.7,3.8-3.8,3.8h-20.4c-2.1,0-3.8-1.7-3.8-3.8V75.1
			C246,73,247.7,71.3,249.8,71.3z"/>
		<path class="st9" d="M249.8,114.5h20.4c2.1,0,3.8,1.7,3.8,3.8v20.4c0,2.1-1.7,3.8-3.8,3.8h-20.4c-2.1,0-3.8-1.7-3.8-3.8v-20.4
			C246,116.2,247.7,114.5,249.8,114.5z"/>
		<path class="st10" d="M249.8,157.8h20.4c2.1,0,3.8,1.7,3.8,3.8V182c0,2.1-1.7,3.8-3.8,3.8h-20.4c-2.1,0-3.8-1.7-3.8-3.8v-20.4
			C246,159.5,247.7,157.8,249.8,157.8z"/>
		<circle class="st11" cx="183.6" cy="80.2" r="6.6"/>
		<circle class="st12" cx="181.8" cy="78.4" r="1.9"/>
	</g>
	<g transform="translate(610, 60)">
		<path class="st13" d="M142-15.2v12.7h103 M142,48.4v33.1h77.6 M142,124.7v50.9h103"/>
		<circle class="st11" cx="130.5" cy="-12.7" r="3.3"/>
		<circle class="st11" cx="145.8" cy="-12.7" r="3.3"/>
		<circle class="st11" cx="161" cy="-12.7" r="3.3"/>
		<circle class="st11" cx="176.3" cy="-12.7" r="3.3"/>
		<circle class="st11" cx="191.6" cy="-12.7" r="3.3"/>
		<circle class="st11" cx="206.8" cy="-12.7" r="3.3"/>
		<circle class="st11" cx="222.1" cy="-12.7" r="3.3"/>
		<circle class="st11" cx="237.4" cy="-12.7" r="3.3"/>
		<circle class="st11" cx="252.6" cy="-12.7" r="3.3"/>
		<circle class="st11" cx="267.9" cy="-12.7" r="3.3"/>
		<circle class="st11" cx="138.1" cy="1.3" r="3.3"/>
		<circle class="st11" cx="153.4" cy="1.3" r="3.3"/>
		<circle class="st11" cx="168.7" cy="1.3" r="3.3"/>
		<circle class="st11" cx="183.9" cy="1.3" r="3.3"/>
		<circle class="st11" cx="199.2" cy="1.3" r="3.3"/>
		<circle class="st11" cx="214.5" cy="1.3" r="3.3"/>
		<circle class="st11" cx="229.7" cy="1.3" r="3.3"/>
		<circle class="st11" cx="245" cy="1.3" r="3.3"/>
		<circle class="st11" cx="260.2" cy="1.3" r="3.3"/>
		<circle class="st11" cx="275.5" cy="1.3" r="3.3"/>
		<circle class="st11" cx="130.5" cy="15.3" r="3.3"/>
		<circle class="st11" cx="145.8" cy="15.3" r="3.3"/>
		<circle class="st11" cx="138.1" cy="29.3" r="3.3"/>
		<circle class="st11" cx="153.4" cy="29.3" r="3.3"/>
		<circle class="st11" cx="130.5" cy="43.3" r="3.3"/>
		<circle class="st11" cx="145.8" cy="43.3" r="3.3"/>
		<circle class="st11" cx="138.1" cy="57.3" r="3.3"/>
		<circle class="st11" cx="153.4" cy="57.3" r="3.3"/>
		<circle class="st11" cx="130.5" cy="71.3" r="3.3"/>
		<circle class="st11" cx="145.8" cy="71.3" r="3.3"/>
		<circle class="st11" cx="161" cy="71.3" r="3.3"/>
		<circle class="st11" cx="176.3" cy="71.3" r="3.3"/>
		<circle class="st11" cx="191.6" cy="71.3" r="3.3"/>
		<circle class="st11" cx="206.8" cy="71.3" r="3.3"/>
		<circle class="st11" cx="222.1" cy="71.3" r="3.3"/>
		<circle class="st11" cx="237.4" cy="71.3" r="3.3"/>
		<circle class="st11" cx="138.1" cy="85.3" r="3.3"/>
		<circle class="st11" cx="153.4" cy="85.3" r="3.3"/>
		<circle class="st11" cx="168.7" cy="85.3" r="3.3"/>
		<circle class="st11" cx="183.9" cy="85.3" r="3.3"/>
		<circle class="st11" cx="199.2" cy="85.3" r="3.3"/>
		<circle class="st11" cx="214.5" cy="85.3" r="3.3"/>
		<circle class="st11" cx="229.7" cy="85.3" r="3.3"/>
		<circle class="st11" cx="130.5" cy="99.3" r="3.3"/>
		<circle class="st11" cx="145.8" cy="99.3" r="3.3"/>
		<circle class="st11" cx="138.1" cy="113.3" r="3.3"/>
		<circle class="st11" cx="153.4" cy="113.3" r="3.3"/>
		<circle class="st11" cx="130.5" cy="127.3" r="3.3"/>
		<circle class="st11" cx="145.8" cy="127.3" r="3.3"/>
		<circle class="st11" cx="138.1" cy="141.2" r="3.3"/>
		<circle class="st11" cx="153.4" cy="141.2" r="3.3"/>
		<circle class="st11" cx="130.5" cy="155.2" r="3.3"/>
		<circle class="st11" cx="145.8" cy="155.2" r="3.3"/>
		<circle class="st11" cx="138.1" cy="169.2" r="3.3"/>
		<circle class="st11" cx="153.4" cy="169.2" r="3.3"/>
		<circle class="st11" cx="168.7" cy="169.2" r="3.3"/>
		<circle class="st11" cx="183.9" cy="169.2" r="3.3"/>
		<circle class="st11" cx="199.2" cy="169.2" r="3.3"/>
		<circle class="st11" cx="214.5" cy="169.2" r="3.3"/>
		<circle class="st11" cx="229.7" cy="169.2" r="3.3"/>
		<circle class="st11" cx="245" cy="169.2" r="3.3"/>
		<circle class="st11" cx="260.2" cy="169.2" r="3.3"/>
		<circle class="st11" cx="275.5" cy="169.2" r="3.3"/>
		<circle class="st11" cx="130.5" cy="183.2" r="3.3"/>
		<circle class="st11" cx="145.8" cy="183.2" r="3.3"/>
		
			<ellipse transform="matrix(3.327797e-02 -0.9994 0.9994 3.327797e-02 -27.4467 338.0713)" class="st11" cx="161" cy="183.2" rx="3.3" ry="3.3"/>
		<circle class="st11" cx="176.3" cy="183.2" r="3.3"/>
		<circle class="st11" cx="191.6" cy="183.2" r="3.3"/>
		<circle class="st11" cx="206.8" cy="183.2" r="3.3"/>
		<circle class="st11" cx="222.1" cy="183.2" r="3.3"/>
		<circle class="st11" cx="237.4" cy="183.2" r="3.3"/>
		<circle class="st11" cx="252.6" cy="183.2" r="3.3"/>
		<circle class="st11" cx="267.9" cy="183.2" r="3.3"/>
		<circle class="st14" cx="267.9" cy="-2.5" r="12.7"/>
		<circle class="st15" cx="229.7" cy="81.5" r="12.7"/>
		<circle class="st16" cx="267.9" cy="175.6" r="12.7"/>
	</g>
</g>
<text transform="matrix(1 0 0 1 423.7319 323)" class="st11 st17 st18 st19">Lab</text>
<text transform="matrix(1 0 0 1 28.9025 410)" class="st20 st21 st22 st23">GENOMICS AND ADAPTIVE MECHANISMS</text>
</svg>
