<svg xmlns="http://www.w3.org/2000/svg" viewBox="0 0 183.0 183.0" width="183" height="183"><rect width="183.0" height="183.0" fill="#FBF7EC"/><g transform="translate(14.50,-10.00)"><rect x="64" y="24" width="23" height="3" fill="#E8B23A" stroke="#1A1A1F" stroke-width="0.5"/><rect x="69" y="28" width="18" height="3" fill="#E8593C" stroke="#1A1A1F" stroke-width="0.5"/><rect x="53" y="32" width="14" height="3" fill="#E8593C" stroke="#1A1A1F" stroke-width="0.5"/><rect x="40" y="36" width="40" height="3" fill="#E8B23A" stroke="#1A1A1F" stroke-width="0.5"/><rect x="75" y="40" width="42" height="3" fill="#E8B23A" stroke="#1A1A1F" stroke-width="0.5"/><rect x="34" y="40" width="96" height="3" fill="#F6F1E4" stroke="#1A1A1F" stroke-width="0.5"/><rect x="73" y="44" width="14" height="3" fill="#F6F1E4" stroke="#1A1A1F" stroke-width="0.5"/><rect x="45" y="44" width="9" height="3" fill="#F6F1E4" stroke="#1A1A1F" stroke-width="0.5"/><rect x="20" y="48" width="118" height="3" fill="#E8B23A" stroke="#1A1A1F" stroke-width="0.5"/><rect x="75" y="48" width="54" height="3" fill="#F6F1E4" stroke="#1A1A1F" stroke-width="0.5"/><rect x="19" y="52" width="12" height="3" fill="#E8593C" stroke="#1A1A1F" stroke-width="0.5"/><rect x="18" y="52" width="45" height="3" fill="#E8593C" stroke="#1A1A1F" stroke-width="0.5"/><rect x="106" y="52" width="14" height="3" fill="#E8B23A" stroke="#1A1A1F" stroke-width="0.5"/><rect x="100" y="52" width="44" height="3" fill="#F6F1E4" stroke="#1A1A1F" stroke-width="0.5"/><rect x="95" y="52" width="29" height="3" fill="#E8B23A" stroke="#1A1A1F" stroke-width="0.5"/><rect x="23" y="56" width="30" height="3" fill="#F6F1E4" stroke="#1A1A1F" stroke-width="0.5"/><rect x="14" y="56" width="12" height="3" fill="#E8B23A" stroke="#1A1A1F" stroke-width="0.5"/><rect x="25" y="56" width="28" height="3" fill="#F6F1E4" stroke="#1A1A1F" stroke-width="0.5"/><rect x="107" y="56" width="39" height="3" fill="#F6F1E4" stroke="#1A1A1F" stroke-width="0.5"/><rect x="105" y="56" width="32" height="3" fill="#E8B23A" stroke="#1A1A1F" stroke-width="0.5"/><rect x="106" y="56" width="40" height="3" fill="#E8B23A" stroke="#1A1A1F" stroke-width="0.5"/><rect x="31" y="60" width="6" height="3" fill="#F6F1E4" stroke="#1A1A1F" stroke-width="0.5"/><rect x="18" y="60" width="20" height="3" fill="#F6F1E4" stroke="#1A1A1F" stroke-width="0.5"/><rect x="117" y="60" width="31" height="3" fill="#F6F1E4" stroke="#1A1A1F" stroke-width="0.5"/><rect x="119" y="60" width="6" height="3" fill="#E8593C" stroke="#1A1A1F" stroke-width="0.5"/><rect x="120" y="60" width="26" height="3" fill="#E8B23A" stroke="#1A1A1F" stroke-width="0.5"/><rect x="13" y="64" width="26" height="3" fill="#E8593C" stroke="#1A1A1F" stroke-width="0.5"/><rect x="16" y="64" width="10" height="3" fill="#E8B23A" stroke="#1A1A1F" stroke-width="0.5"/><rect x="20" y="64" width="18" height="3" fill="#E8B23A" stroke="#1A1A1F" stroke-width="0.5"/><rect x="128" y="64" width="23" height="3" fill="#F6F1E4" stroke="#1A1A1F" stroke-width="0.5"/><rect x="125" y="64" width="11" height="3" fill="#E8593C" stroke="#1A1A1F" stroke-width="0.5"/><rect x="118" y="64" width="29" height="3" fill="#E8593C" stroke="#1A1A1F" stroke-width="0.5"/><rect x="12" y="68" width="29" height="3" fill="#E8B23A" stroke="#1A1A1F" stroke-width="0.5"/><rect x="23" y="68" width="12" height="3" fill="#F6F1E4" stroke="#1A1A1F" stroke-width="0.5"/><rect x="34" y="68" width="7" height="3" fill="#E8B23A" stroke="#1A1A1F" stroke-width="0.5"/><rect x="122" y="68" width="29" height="3" fill="#E8B23A" stroke="#1A1A1F" stroke-width="0.5"/><rect x="122" y="68" width="29" height="3" fill="#E8B23A" stroke="#1A1A1F" stroke-width="0.5"/><rect x="119" y="68" width="16" height="3" fill="#F6F1E4" stroke="#1A1A1F" stroke-width="0.5"/><rect x="20" y="72" width="18" height="3" fill="#F6F1E4" stroke="#1A1A1F" stroke-width="0.5"/><rect x="11" y="72" width="24" height="3" fill="#E8593C" stroke="#1A1A1F" stroke-width="0.5"/><rect x="13" y="72" width="8" height="3" fill="#F6F1E4" stroke="#1A1A1F" stroke-width="0.5"/><rect x="137" y="72" width="17" height="3" fill="#E8B23A" stroke="#1A1A1F" stroke-width="0.5"/><rect x="125" y="72" width="21" height="3" fill="#F6F1E4" stroke="#1A1A1F" stroke-width="0.5"/><rect x="4" y="76" width="21" height="3" fill="#F6F1E4" stroke="#1A1A1F" stroke-width="0.5"/><rect x="7" y="76" width="20" height="3" fill="#F6F1E4" stroke="#1A1A1F" stroke-width="0.5"/><rect x="14" y="76" width="21" height="3" fill="#F6F1E4" stroke="#1A1A1F" stroke-width="0.5"/><rect x="126" y="76" width="21" height="3" fill="#F6F1E4" stroke="#1A1A1F" stroke-width="0.5"/><rect x="129" y="76" width="20" height="3" fill="#F6F1E4" stroke="#1A1A1F" stroke-width="0.5"/><rect x="5" y="80" width="29" height="3" fill="#E8B23A" stroke="#1A1A1F" stroke-width="0.5"/><rect x="10" y="80" width="6" height="3" fill="#E8B23A" stroke="#1A1A1F" stroke-width="0.5"/><rect x="7" y="80" width="25" height="3" fill="#E8B23A" stroke="#1A1A1F" stroke-width="0.5"/><rect x="134" y="80" width="7" height="3" fill="#F6F1E4" stroke="#1A1A1F" stroke-width="0.5"/><rect x="129" y="80" width="11" height="3" fill="#E8B23A" stroke="#1A1A1F" stroke-width="0.5"/><rect x="9" y="84" width="18" height="3" fill="#F6F1E4" stroke="#1A1A1F" stroke-width="0.5"/><rect x="4" y="84" width="12" height="3" fill="#F6F1E4" stroke="#1A1A1F" stroke-width="0.5"/><rect x="13" y="84" width="18" height="3" fill="#E8B23A" stroke="#1A1A1F" stroke-width="0.5"/><rect x="6" y="88" width="14" height="3" fill="#E8593C" stroke="#1A1A1F" stroke-width="0.5"/><rect x="8" y="88" width="9" height="3" fill="#F6F1E4" stroke="#1A1A1F" stroke-width="0.5"/><rect x="7" y="92" width="10" height="3" fill="#E8593C" stroke="#1A1A1F" stroke-width="0.5"/><rect x="15" y="96" width="13" height="3" fill="#E8B23A" stroke="#1A1A1F" stroke-width="0.5"/><rect x="6" y="96" width="12" height="3" fill="#F6F1E4" stroke="#1A1A1F" stroke-width="0.5"/><rect x="5" y="100" width="25" height="3" fill="#E8593C" stroke="#1A1A1F" stroke-width="0.5"/><rect x="3" y="100" width="15" height="3" fill="#F6F1E4" stroke="#1A1A1F" stroke-width="0.5"/><rect x="0" y="100" width="17" height="3" fill="#F6F1E4" stroke="#1A1A1F" stroke-width="0.5"/><rect x="6" y="104" width="22" height="3" fill="#E8B23A" stroke="#1A1A1F" stroke-width="0.5"/><rect x="80" y="104" width="22" height="3" fill="#F6F1E4" stroke="#1A1A1F" stroke-width="0.5"/><rect x="98" y="104" width="21" height="3" fill="#E8B23A" stroke="#1A1A1F" stroke-width="0.5"/><rect x="10" y="108" width="12" height="3" fill="#F6F1E4" stroke="#1A1A1F" stroke-width="0.5"/><rect x="1" y="108" width="23" height="3" fill="#E8B23A" stroke="#1A1A1F" stroke-width="0.5"/><rect x="89" y="108" width="23" height="3" fill="#E8593C" stroke="#1A1A1F" stroke-width="0.5"/><rect x="92" y="108" width="33" height="3" fill="#F6F1E4" stroke="#1A1A1F" stroke-width="0.5"/><rect x="87" y="108" width="37" height="3" fill="#F6F1E4" stroke="#1A1A1F" stroke-width="0.5"/><rect x="14" y="112" width="10" height="3" fill="#F6F1E4" stroke="#1A1A1F" stroke-width="0.5"/><rect x="9" y="112" width="19" height="3" fill="#E8B23A" stroke="#1A1A1F" stroke-width="0.5"/><rect x="4" y="112" width="26" height="3" fill="#E8593C" stroke="#1A1A1F" stroke-width="0.5"/><rect x="104" y="112" width="16" height="3" fill="#E8B23A" stroke="#1A1A1F" stroke-width="0.5"/><rect x="90" y="112" width="30" height="3" fill="#E8B23A" stroke="#1A1A1F" stroke-width="0.5"/><rect x="84" y="112" width="42" height="3" fill="#E8B23A" stroke="#1A1A1F" stroke-width="0.5"/><rect x="3" y="116" width="25" height="3" fill="#F6F1E4" stroke="#1A1A1F" stroke-width="0.5"/><rect x="9" y="116" width="20" height="3" fill="#E8593C" stroke="#1A1A1F" stroke-width="0.5"/><rect x="18" y="120" width="14" height="3" fill="#E8B23A" stroke="#1A1A1F" stroke-width="0.5"/><rect x="8" y="120" width="20" height="3" fill="#E8593C" stroke="#1A1A1F" stroke-width="0.5"/><rect x="126" y="120" width="13" height="3" fill="#F6F1E4" stroke="#1A1A1F" stroke-width="0.5"/><rect x="128" y="120" width="11" height="3" fill="#F6F1E4" stroke="#1A1A1F" stroke-width="0.5"/><rect x="29" y="124" width="6" height="3" fill="#E8B23A" stroke="#1A1A1F" stroke-width="0.5"/><rect x="12" y="124" width="23" height="3" fill="#E8B23A" stroke="#1A1A1F" stroke-width="0.5"/><rect x="5" y="124" width="29" height="3" fill="#F6F1E4" stroke="#1A1A1F" stroke-width="0.5"/><rect x="125" y="124" width="27" height="3" fill="#E8B23A" stroke="#1A1A1F" stroke-width="0.5"/><rect x="140" y="124" width="11" height="3" fill="#F6F1E4" stroke="#1A1A1F" stroke-width="0.5"/><rect x="27" y="128" width="9" height="3" fill="#E8593C" stroke="#1A1A1F" stroke-width="0.5"/><rect x="10" y="128" width="23" height="3" fill="#E8593C" stroke="#1A1A1F" stroke-width="0.5"/><rect x="129" y="128" width="17" height="3" fill="#F6F1E4" stroke="#1A1A1F" stroke-width="0.5"/><rect x="122" y="128" width="25" height="3" fill="#E8B23A" stroke="#1A1A1F" stroke-width="0.5"/><rect x="123" y="128" width="28" height="3" fill="#E8B23A" stroke="#1A1A1F" stroke-width="0.5"/><rect x="7" y="132" width="21" height="3" fill="#E8B23A" stroke="#1A1A1F" stroke-width="0.5"/><rect x="22" y="132" width="14" height="3" fill="#F6F1E4" stroke="#1A1A1F" stroke-width="0.5"/><rect x="20" y="132" width="14" height="3" fill="#E8593C" stroke="#1A1A1F" stroke-width="0.5"/><rect x="119" y="132" width="19" height="3" fill="#F6F1E4" stroke="#1A1A1F" stroke-width="0.5"/><rect x="126" y="132" width="27" height="3" fill="#E8593C" stroke="#1A1A1F" stroke-width="0.5"/><rect x="121" y="132" width="21" height="3" fill="#E8593C" stroke="#1A1A1F" stroke-width="0.5"/><rect x="22" y="136" width="23" height="3" fill="#F6F1E4" stroke="#1A1A1F" stroke-width="0.5"/><rect x="29" y="136" width="14" height="3" fill="#E8593C" stroke="#1A1A1F" stroke-width="0.5"/><rect x="116" y="136" width="34" height="3" fill="#E8593C" stroke="#1A1A1F" stroke-width="0.5"/><rect x="121" y="136" width="30" height="3" fill="#F6F1E4" stroke="#1A1A1F" stroke-width="0.5"/><rect x="11" y="140" width="35" height="3" fill="#E8B23A" stroke="#1A1A1F" stroke-width="0.5"/><rect x="11" y="140" width="33" height="3" fill="#F6F1E4" stroke="#1A1A1F" stroke-width="0.5"/><rect x="38" y="140" width="7" height="3" fill="#E8593C" stroke="#1A1A1F" stroke-width="0.5"/><rect x="114" y="140" width="34" height="3" fill="#F6F1E4" stroke="#1A1A1F" stroke-width="0.5"/><rect x="118" y="140" width="30" height="3" fill="#F6F1E4" stroke="#1A1A1F" stroke-width="0.5"/><rect x="26" y="144" width="30" height="3" fill="#F6F1E4" stroke="#1A1A1F" stroke-width="0.5"/><rect x="25" y="144" width="17" height="3" fill="#E8B23A" stroke="#1A1A1F" stroke-width="0.5"/><rect x="27" y="144" width="14" height="3" fill="#E8B23A" stroke="#1A1A1F" stroke-width="0.5"/><rect x="125" y="144" width="17" height="3" fill="#E8593C" stroke="#1A1A1F" stroke-width="0.5"/><rect x="118" y="144" width="17" height="3" fill="#E8B23A" stroke="#1A1A1F" stroke-width="0.5"/><rect x="106" y="144" width="37" height="3" fill="#E8B23A" stroke="#1A1A1F" stroke-width="0.5"/><rect x="26" y="148" width="34" height="3" fill="#F6F1E4" stroke="#1A1A1F" stroke-width="0.5"/><rect x="16" y="148" width="31" height="3" fill="#E8593C" stroke="#1A1A1F" stroke-width="0.5"/><rect x="17" y="148" width="48" height="3" fill="#F6F1E4" stroke="#1A1A1F" stroke-width="0.5"/><rect x="107" y="148" width="22" height="3" fill="#E8B23A" stroke="#1A1A1F" stroke-width="0.5"/><rect x="109" y="148" width="33" height="3" fill="#E8593C" stroke="#1A1A1F" stroke-width="0.5"/><rect x="32" y="152" width="40" height="3" fill="#E8593C" stroke="#1A1A1F" stroke-width="0.5"/><rect x="41" y="152" width="45" height="3" fill="#E8593C" stroke="#1A1A1F" stroke-width="0.5"/><rect x="64" y="152" width="20" height="3" fill="#F6F1E4" stroke="#1A1A1F" stroke-width="0.5"/><rect x="55" y="156" width="19" height="3" fill="#E8B23A" stroke="#1A1A1F" stroke-width="0.5"/><rect x="26" y="156" width="111" height="3" fill="#E8B23A" stroke="#1A1A1F" stroke-width="0.5"/><rect x="31" y="160" width="94" height="3" fill="#E8B23A" stroke="#1A1A1F" stroke-width="0.5"/><rect x="46" y="160" width="40" height="3" fill="#E8593C" stroke="#1A1A1F" stroke-width="0.5"/><rect x="34" y="164" width="79" height="3" fill="#E8B23A" stroke="#1A1A1F" stroke-width="0.5"/><rect x="42" y="168" width="69" height="3" fill="#F6F1E4" stroke="#1A1A1F" stroke-width="0.5"/><rect x="63" y="172" width="26" height="3" fill="#F6F1E4" stroke="#1A1A1F" stroke-width="0.5"/><rect x="78" y="176" width="12" height="3" fill="#F6F1E4" stroke="#1A1A1F" stroke-width="0.5"/></g></svg>