<?xml version="1.0" encoding="utf-8"?>
<!-- Generator: Adobe Illustrator 25.0.0, SVG Export Plug-In . SVG Version: 6.00 Build 0)  -->
<svg version="1.1" id="Layer_1" xmlns="http://www.w3.org/2000/svg" xmlns:xlink="http://www.w3.org/1999/xlink" x="0px" y="0px"
	 viewBox="0 0 260 260" style="enable-background:new 0 0 260 260;" xml:space="preserve">
<style type="text/css">
	.st0{fill:#F3F1EA;stroke:#D8D2C6;stroke-width:1.5;}
	.st1{fill:#2A2E35;fill-opacity:0.16;}
	.st2{fill:none;stroke:#2A2E35;stroke-width:1.2;stroke-opacity:0.45;}
	.st3{fill:#F3F1EA;stroke:#2A2E35;stroke-width:1.8;}
	.st4{fill:#2A2E35;fill-opacity:6.000000e-02;stroke:#2A2E35;stroke-width:1.2;}
	.st5{fill:#2A2E35;}
	.st6{fill:#F3F1EA;stroke:#2F8A8F;stroke-width:1.8;}
	.st7{fill:none;stroke:#2F8A8F;stroke-width:2;stroke-linecap:round;}
	.st8{fill:#F3F1EA;stroke:#D2694A;stroke-width:1.8;}
	.st9{fill:#D2694A;fill-opacity:0.18;stroke:#D2694A;stroke-width:1.7;stroke-linejoin:round;}
	.st10{fill:#F3F1EA;stroke:#E8B23A;stroke-width:1.8;}
	.st11{fill:none;stroke:#E8B23A;stroke-width:1.6;stroke-dasharray:2.5,3;}
	.st12{fill:none;stroke:#E8B23A;stroke-width:2.2;stroke-linecap:round;}
	.st13{fill:none;stroke:#2A2E35;stroke-width:1.8;stroke-linecap:round;}
	.st14{fill:none;stroke:#2A2E35;stroke-width:1.8;stroke-linecap:round;stroke-linejoin:round;}
</style>
<path class="st0" d="M17.5,1.5h225c8.8,0,16,7.2,16,16v225c0,8.8-7.2,16-16,16h-225c-8.8,0-16-7.2-16-16v-225
	C1.5,8.7,8.7,1.5,17.5,1.5z"/>
<g>
	<circle class="st1" cx="28" cy="26" r="2.6"/>
	<circle class="st1" cx="46" cy="22" r="2.6"/>
	<circle class="st1" cx="64" cy="28" r="2.4"/>
	<circle class="st1" cx="34" cy="44" r="2.4"/>
	<circle class="st1" cx="54" cy="42" r="2.2"/>
	<circle class="st1" cx="78" cy="40" r="2"/>
	<circle class="st1" cx="26" cy="62" r="2.2"/>
	<circle class="st1" cx="48" cy="62" r="2"/>
	<circle class="st1" cx="72" cy="60" r="1.8"/>
	<circle class="st1" cx="96" cy="36" r="1.8"/>
	<circle class="st1" cx="30" cy="84" r="1.8"/>
	<circle class="st1" cx="56" cy="84" r="1.6"/>
	<circle class="st1" cx="100" cy="62" r="1.5"/>
	<circle class="st1" cx="120" cy="40" r="1.4"/>
	<circle class="st1" cx="40" cy="108" r="1.5"/>
	<circle class="st1" cx="84" cy="100" r="1.3"/>
	<circle class="st1" cx="146" cy="34" r="1.2"/>
</g>
<g>
	<line class="st2" x1="130" y1="130" x2="130" y2="64"/>
	<line class="st2" x1="130" y1="130" x2="196" y2="130"/>
	<line class="st2" x1="130" y1="130" x2="130" y2="196"/>
	<line class="st2" x1="130" y1="130" x2="64" y2="130"/>
</g>
<circle class="st3" cx="130" cy="130" r="26"/>
<circle class="st4" cx="130" cy="130" r="13"/>
<circle class="st5" cx="130" cy="130" r="4"/>
<g>
	<circle class="st6" cx="130" cy="48" r="18"/>
	<g>
		<path class="st7" d="M130,58V46"/>
		<path class="st7" d="M130,46l-8-8 M130,46l8-8"/>
		<path class="st7" d="M122,38v-6 M138,38v-6"/>
	</g>
</g>
<g>
	<circle class="st8" cx="212" cy="130" r="18"/>
	<path class="st9" d="M212,120l10,4v6c0,6-5,9-10,11c-5-2-10-5-10-11v-6L212,120z"/>
</g>
<g>
	<circle class="st10" cx="130" cy="212" r="18"/>
	<circle class="st11" cx="130" cy="212" r="9.5"/>
	<g>
		<line class="st12" x1="126.5" y1="207.5" x2="126.5" y2="216.5"/>
		<line class="st12" x1="133.5" y1="207.5" x2="133.5" y2="216.5"/>
	</g>
</g>
<g>
	<circle class="st3" cx="48" cy="130" r="18"/>
	<path class="st13" d="M40,124c3.2-3.8,8.8-4.4,12.7-1.2s4.4,8.8,1.2,12.7c-3.2,3.8-8.8,4.4-12.7,1.2c-0.9-0.7-1.6-1.6-2.2-2.7"/>
	<path class="st14" d="M44,123.5l-5,2l1-6"/>
</g>
</svg>
