<svg xmlns="http://www.w3.org/2000/svg" viewBox="0 0 260 260" role="img" aria-label="Cancer cell adaptation: a central cell within a stress gradient, switching between glycolytic, dormant, drug-tolerant and metabolically flexible survival strategies">
  <rect x="1.5" y="1.5" width="257" height="257" rx="16" fill="#f3f1ea" stroke="#d8d2c6" stroke-width="1.5"></rect>
  
  <g fill="#2a2e35" fill-opacity="0.16">
    <circle cx="28" cy="26" r="2.6"></circle><circle cx="46" cy="22" r="2.6"></circle><circle cx="64" cy="28" r="2.4"></circle><circle cx="34" cy="44" r="2.4"></circle><circle cx="54" cy="42" r="2.2"></circle><circle cx="78" cy="40" r="2"></circle>
    <circle cx="26" cy="62" r="2.2"></circle><circle cx="48" cy="62" r="2"></circle><circle cx="72" cy="60" r="1.8"></circle><circle cx="96" cy="36" r="1.8"></circle>
    <circle cx="30" cy="84" r="1.8"></circle><circle cx="56" cy="84" r="1.6"></circle><circle cx="100" cy="62" r="1.5"></circle><circle cx="120" cy="40" r="1.4"></circle>
    <circle cx="40" cy="108" r="1.5"></circle><circle cx="84" cy="100" r="1.3"></circle><circle cx="146" cy="34" r="1.2"></circle>
  </g>
  
  <g fill="none" stroke="#2a2e35" stroke-width="1.2" stroke-opacity="0.45">
    <line x1="130" y1="130" x2="130" y2="64"></line>
    <line x1="130" y1="130" x2="196" y2="130"></line>
    <line x1="130" y1="130" x2="130" y2="196"></line>
    <line x1="130" y1="130" x2="64" y2="130"></line>
  </g>
  
  <circle cx="130" cy="130" r="26" fill="#f3f1ea" stroke="#2a2e35" stroke-width="1.8"></circle>
  <circle cx="130" cy="130" r="13" fill="#2a2e35" fill-opacity="0.06" stroke="#2a2e35" stroke-width="1.2"></circle>
  <circle cx="130" cy="130" r="4" fill="#2a2e35"></circle>

  
  <g>
    <circle cx="130" cy="48" r="18" fill="#f3f1ea" stroke="#2f8a8f" stroke-width="1.8"></circle>
    <g stroke="#2f8a8f" stroke-width="2" fill="none" stroke-linecap="round">
      <path d="M130 58 V46"></path>
      <path d="M130 46 L122 38 M130 46 L138 38"></path>
      <path d="M122 38 V32 M138 38 V32"></path>
    </g>
  </g>
  
  <g>
    <circle cx="212" cy="130" r="18" fill="#f3f1ea" stroke="#d2694a" stroke-width="1.8"></circle>
    <path d="M212 120 l10 4 v6 c0 6 -5 9 -10 11 c-5 -2 -10 -5 -10 -11 v-6 z" fill="#d2694a" fill-opacity="0.18" stroke="#d2694a" stroke-width="1.7" stroke-linejoin="round"></path>
  </g>
  
  <g>
    <circle cx="130" cy="212" r="18" fill="#f3f1ea" stroke="#E8B23A" stroke-width="1.8"></circle>
    <circle cx="130" cy="212" r="9.5" fill="none" stroke="#E8B23A" stroke-width="1.6" stroke-dasharray="2.5 3"></circle>
    <g stroke="#E8B23A" stroke-width="2.2" stroke-linecap="round">
      <line x1="126.5" y1="207.5" x2="126.5" y2="216.5"></line>
      <line x1="133.5" y1="207.5" x2="133.5" y2="216.5"></line>
    </g>
  </g>
  
  <g>
    <circle cx="48" cy="130" r="18" fill="#f3f1ea" stroke="#2a2e35" stroke-width="1.8"></circle>
    <path d="M40 124 a9 9 0 1 1 -1 10" fill="none" stroke="#2a2e35" stroke-width="1.8" stroke-linecap="round"></path>
    <path d="M40 124 l-2 -5 l6 1" fill="none" stroke="#2a2e35" stroke-width="1.8" stroke-linecap="round" stroke-linejoin="round"></path>
  </g>
</svg>