<svg xmlns="http://www.w3.org/2000/svg" viewBox="0 0 220 220" role="img" aria-label="Cell-cell communication: two cell groups exchanging secreted factors and a contact junction">
  <rect x="1.5" y="1.5" width="217" height="217" rx="14" fill="#f3f1ea" stroke="#d8d2c6" stroke-width="1.5"></rect>
  
  <line x1="84" y1="110" x2="138" y2="110" stroke="#2a2e35" stroke-width="1.6"></line>
  <line x1="108" y1="103" x2="108" y2="117" stroke="#2a2e35" stroke-width="1.4"></line>
  <line x1="114" y1="103" x2="114" y2="117" stroke="#2a2e35" stroke-width="1.4"></line>
  
  <g fill="#d2694a">
    <circle cx="92" cy="80" r="3"></circle>
    <circle cx="104" cy="74" r="3"></circle>
    <circle cx="118" cy="74" r="3"></circle>
    <circle cx="130" cy="80" r="3"></circle>
  </g>
  <path d="M134 80 l-7 -3 m7 3 l-7 4" fill="none" stroke="#d2694a" stroke-width="1.6" stroke-linecap="round"></path>
  
  <g fill="#2f8a8f">
    <circle cx="130" cy="142" r="3"></circle>
    <circle cx="118" cy="148" r="3"></circle>
    <circle cx="104" cy="148" r="3"></circle>
    <circle cx="92" cy="142" r="3"></circle>
  </g>
  <path d="M88 142 l7 -3 m-7 3 l7 4" fill="none" stroke="#2f8a8f" stroke-width="1.6" stroke-linecap="round"></path>
  
  <g stroke="#2a2e35" stroke-width="1.6">
    <circle cx="56" cy="84" r="11" fill="#2f8a8f"></circle>
    <circle cx="50" cy="128" r="11" fill="#2f8a8f"></circle>
    <circle cx="80" cy="110" r="12" fill="#f3f1ea"></circle>
  </g>
  
  <g stroke="#2a2e35" stroke-width="1.6">
    <circle cx="164" cy="86" r="11" fill="#d2694a"></circle>
    <circle cx="170" cy="130" r="11" fill="#d2694a"></circle>
    <circle cx="142" cy="110" r="12" fill="#f3f1ea"></circle>
  </g>
  
  <path d="M130 104 a5 5 0 0 1 0 12" fill="none" stroke="#2a2e35" stroke-width="1.4"></path>
  <path d="M92 104 a5 5 0 0 0 0 12" fill="none" stroke="#2a2e35" stroke-width="1.4"></path>
</svg>