<?xml version="1.0" encoding="utf-8"?>
<!-- Generator: Adobe Illustrator 25.0.0, SVG Export Plug-In . SVG Version: 6.00 Build 0)  -->
<svg version="1.1" id="Layer_1" xmlns="http://www.w3.org/2000/svg" xmlns:xlink="http://www.w3.org/1999/xlink" x="0px" y="0px"
	 viewBox="0 0 220 220" style="enable-background:new 0 0 220 220;" xml:space="preserve">
<style type="text/css">
	.st0{fill:#F3F1EA;stroke:#D8D2C6;stroke-width:1.5;}
	.st1{fill:none;stroke:#2A2E35;stroke-width:1.6;}
	.st2{fill:none;stroke:#2A2E35;stroke-width:1.4;}
	.st3{fill:#D2694A;}
	.st4{fill:none;stroke:#D2694A;stroke-width:1.6;stroke-linecap:round;}
	.st5{fill:#2F8A8F;}
	.st6{fill:none;stroke:#2F8A8F;stroke-width:1.6;stroke-linecap:round;}
	.st7{fill:#2F8A8F;stroke:#2A2E35;stroke-width:1.6;}
	.st8{fill:#F3F1EA;stroke:#2A2E35;stroke-width:1.6;}
	.st9{fill:#D2694A;stroke:#2A2E35;stroke-width:1.6;}
</style>
<path class="st0" d="M15.5,1.5h189c7.7,0,14,6.3,14,14v189c0,7.7-6.3,14-14,14h-189c-7.7,0-14-6.3-14-14v-189
	C1.5,7.8,7.8,1.5,15.5,1.5z"/>
<line class="st1" x1="84" y1="110" x2="138" y2="110"/>
<line class="st2" x1="108" y1="103" x2="108" y2="117"/>
<line class="st2" x1="114" y1="103" x2="114" y2="117"/>
<g>
	<circle class="st3" cx="92" cy="80" r="3"/>
	<circle class="st3" cx="104" cy="74" r="3"/>
	<circle class="st3" cx="118" cy="74" r="3"/>
	<circle class="st3" cx="130" cy="80" r="3"/>
</g>
<path class="st4" d="M139.9,88.2l-2.8-7.1 M139.9,88.2l-7.8-2.1"/>
<g>
	<circle class="st5" cx="130" cy="142" r="3"/>
	<circle class="st5" cx="118" cy="148" r="3"/>
	<circle class="st5" cx="104" cy="148" r="3"/>
	<circle class="st5" cx="92" cy="142" r="3"/>
</g>
<path class="st6" d="M83.9,133.1l7.1,2.8 M83.9,133.1l2.1,7.8"/>
<g>
	<circle class="st7" cx="56" cy="84" r="11"/>
	<circle class="st7" cx="50" cy="128" r="11"/>
	<circle class="st8" cx="80" cy="110" r="12"/>
</g>
<g>
	<circle class="st9" cx="164" cy="86" r="11"/>
	<circle class="st9" cx="170" cy="130" r="11"/>
	<circle class="st8" cx="142" cy="110" r="12"/>
</g>
<path class="st2" d="M130,104c3.3,0,6,2.7,6,6s-2.7,6-6,6"/>
<path class="st2" d="M92,104c-3.3,0-6,2.7-6,6s2.7,6,6,6"/>
</svg>
