<svg xmlns="http://www.w3.org/2000/svg" viewBox="0 0 220 220" role="img" aria-label="Genomic locus proteomics: a DNA locus with a proximity-labeling capture radius and nearby proteins">
  <rect x="1.5" y="1.5" width="217" height="217" rx="14" fill="#1F2026" stroke="#2E2F37" stroke-width="1.5"></rect>
  
  <circle cx="96" cy="126" r="42" fill="none" stroke="#2E2F37" stroke-width="1.4" stroke-dasharray="3 5"></circle>
  <circle cx="96" cy="126" r="24" fill="none" stroke="#4FB3B6" stroke-width="1.4" stroke-dasharray="3 4"></circle>
  
  <g stroke="#ECE7D8" stroke-width="1.6">
    <line x1="36" y1="122" x2="184" y2="122"></line>
    <line x1="36" y1="130" x2="184" y2="130"></line>
  </g>
  <g stroke="#ECE7D8" stroke-width="1">
    <line x1="44" y1="122" x2="44" y2="130"></line>
    <line x1="58" y1="122" x2="58" y2="130"></line>
    <line x1="72" y1="122" x2="72" y2="130"></line>
    <line x1="120" y1="122" x2="120" y2="130"></line>
    <line x1="134" y1="122" x2="134" y2="130"></line>
    <line x1="148" y1="122" x2="148" y2="130"></line>
    <line x1="162" y1="122" x2="162" y2="130"></line>
    <line x1="176" y1="122" x2="176" y2="130"></line>
  </g>
  
  <rect x="90" y="116" width="12" height="20" rx="2" fill="#4FB3B6" stroke="#ECE7D8" stroke-width="1.6"></rect>
  
  <g stroke="#ECE7D8" stroke-width="1.4">
    <circle cx="84" cy="106" r="4.5" fill="#F06A4E"></circle>
    <circle cx="110" cy="108" r="4.5" fill="#F06A4E"></circle>
    <circle cx="80" cy="144" r="4.5" fill="#F06A4E"></circle>
    <circle cx="112" cy="146" r="4.5" fill="#F06A4E"></circle>
    <circle cx="98" cy="100" r="4.5" fill="#F06A4E"></circle>
  </g>
  
  <g stroke="#ECE7D8" stroke-width="1.4">
    <circle cx="60" cy="152" r="4.5" fill="#1F2026"></circle>
    <circle cx="62" cy="100" r="4.5" fill="#1F2026"></circle>
    <circle cx="132" cy="102" r="4.5" fill="#1F2026"></circle>
    <circle cx="138" cy="150" r="4.5" fill="#1F2026"></circle>
  </g>
</svg>