<svg xmlns="http://www.w3.org/2000/svg" viewBox="0 0 220 220" role="img" aria-label="CAMUS: a multiplexed library demultiplexed into different cell types with distinct barcodes">
  <rect x="1.5" y="1.5" width="217" height="217" rx="14" fill="#f3f1ea" stroke="#d8d2c6" stroke-width="1.5"></rect>
  
  <g fill="none" stroke="#2a2e35" stroke-width="1.3" stroke-opacity="0.6">
    <path d="M70 110 C 110 96 128 66 156 62"></path>
    <path d="M70 110 C 110 110 130 110 160 110"></path>
    <path d="M70 110 C 110 124 128 154 156 158"></path>
  </g>
  
  <rect x="34" y="92" width="36" height="36" rx="5" fill="#f3f1ea" stroke="#2a2e35" stroke-width="1.6"></rect>
  <line x1="44" y1="98" x2="44" y2="122" stroke="#2f8a8f" stroke-width="3"></line>
  <line x1="52" y1="98" x2="52" y2="122" stroke="#d2694a" stroke-width="3"></line>
  <line x1="60" y1="98" x2="60" y2="122" stroke="#2a2e35" stroke-width="3"></line>
  
  <circle cx="156" cy="62" r="13" fill="#f3f1ea" stroke="#2a2e35" stroke-width="1.6"></circle>
  <circle cx="156" cy="62" r="4" fill="#2f8a8f"></circle>
  <g stroke="#2f8a8f" stroke-width="2.4"><line x1="178" y1="54" x2="178" y2="70"></line><line x1="184" y1="54" x2="184" y2="70"></line><line x1="190" y1="54" x2="190" y2="70"></line></g>
  
  <circle cx="160" cy="110" r="13" fill="#f3f1ea" stroke="#2a2e35" stroke-width="1.6"></circle>
  <circle cx="160" cy="110" r="4" fill="#d2694a"></circle>
  <g stroke="#d2694a" stroke-width="2.4"><line x1="182" y1="102" x2="182" y2="118"></line><line x1="188" y1="102" x2="188" y2="118"></line><line x1="194" y1="102" x2="194" y2="118"></line></g>
  
  <circle cx="156" cy="158" r="13" fill="#f3f1ea" stroke="#2a2e35" stroke-width="1.6"></circle>
  <circle cx="156" cy="158" r="4" fill="#2a2e35"></circle>
  <g stroke="#2a2e35" stroke-width="2.4"><line x1="178" y1="150" x2="178" y2="166"></line><line x1="184" y1="150" x2="184" y2="166"></line><line x1="190" y1="150" x2="190" y2="166"></line></g>
</svg>