<svg xmlns="http://www.w3.org/2000/svg" viewBox="0 0 220 220" role="img" aria-label="Nutrient deprivation adaptation: a cell scavenging sparse nutrients and switching on autophagy">
  <rect x="1.5" y="1.5" width="217" height="217" rx="14" fill="#f3f1ea" stroke="#d8d2c6" stroke-width="1.5"></rect>
  <g fill="#2a2e35" fill-opacity="0.22">
    <circle cx="30" cy="30" r="2.8"></circle><circle cx="52" cy="24" r="2.4"></circle><circle cx="74" cy="34" r="2.6"></circle><circle cx="38" cy="18" r="2"></circle>
    <circle cx="24" cy="54" r="2.4"></circle><circle cx="188" cy="30" r="2.6"></circle><circle cx="166" cy="24" r="2.2"></circle><circle cx="200" cy="18" r="2"></circle>
    <circle cx="196" cy="56" r="2.4"></circle><circle cx="30" cy="182" r="2.6"></circle><circle cx="52" cy="192" r="2.2"></circle><circle cx="14" cy="200" r="2"></circle>
    <circle cx="184" cy="188" r="2.6"></circle><circle cx="162" cy="196" r="2.2"></circle><circle cx="106" cy="24" r="2"></circle><circle cx="200" cy="200" r="2"></circle>
    <circle cx="100" cy="196" r="2"></circle><circle cx="20" cy="110" r="2.2"></circle><circle cx="200" cy="110" r="2.2"></circle><circle cx="110" cy="14" r="2"></circle>
    <circle cx="110" cy="204" r="2"></circle><circle cx="44" cy="70" r="2"></circle><circle cx="176" cy="70" r="2"></circle><circle cx="44" cy="150" r="2"></circle><circle cx="176" cy="150" r="2"></circle>
    <circle cx="64" cy="48" r="1.8"></circle><circle cx="156" cy="48" r="1.8"></circle><circle cx="64" cy="172" r="1.8"></circle><circle cx="156" cy="172" r="1.8"></circle>
    <circle cx="16" cy="16" r="1.6"></circle><circle cx="204" cy="16" r="1.6"></circle><circle cx="16" cy="204" r="1.6"></circle><circle cx="204" cy="204" r="1.6"></circle>
    <circle cx="88" cy="20" r="1.8"></circle><circle cx="132" cy="20" r="1.8"></circle><circle cx="88" cy="200" r="1.8"></circle><circle cx="132" cy="200" r="1.8"></circle>
    <circle cx="20" cy="88" r="1.8"></circle><circle cx="20" cy="132" r="1.8"></circle><circle cx="200" cy="88" r="1.8"></circle><circle cx="200" cy="132" r="1.8"></circle>
    <circle cx="58" cy="96" r="1.6"></circle><circle cx="162" cy="96" r="1.6"></circle><circle cx="58" cy="124" r="1.6"></circle><circle cx="162" cy="124" r="1.6"></circle>
    <circle cx="120" cy="46" r="1.6"></circle><circle cx="100" cy="46" r="1.6"></circle><circle cx="120" cy="174" r="1.6"></circle><circle cx="100" cy="174" r="1.6"></circle>
  </g>

  <circle cx="110" cy="110" r="30" fill="#f3f1ea" stroke="#2a2e35" stroke-width="1.8"></circle>
  
  <circle cx="110" cy="110" r="15" fill="none" stroke="#2f8a8f" stroke-width="1.8" stroke-dasharray="4 3.5"></circle>
  <g fill="#d2694a">
    <rect x="104" y="103" width="7" height="5" rx="1.5"></rect>
    <circle cx="116" cy="115" r="3"></circle>
    <rect x="103" y="114" width="5" height="5" rx="1.2"></rect>
  </g>
</svg>