<svg xmlns="http://www.w3.org/2000/svg" viewBox="0 0 220 220" role="img" aria-label="Ribozyme-flanked gRNA: a Pol II promoter driving a self-cleaving gRNA cassette, restricting Cas9 targeting to one cell type">
  <rect x="1.5" y="1.5" width="217" height="217" rx="14" fill="#1F2026" stroke="#2E2F37" stroke-width="1.5"></rect>

  <rect x="18" y="92" width="76" height="36" rx="6" fill="#1F2026" stroke="#ECE7D8" stroke-width="1.6"></rect>
  <path d="M26 122 L26 104 L38 104" fill="none" stroke="#ECE7D8" stroke-width="1.6"></path>
  <polygon points="38,101 44,104 38,107" fill="#ECE7D8"></polygon>
  <circle cx="50" cy="104" r="4" fill="none" stroke="#4FB3B6" stroke-width="1.8"></circle>
  <line x1="50" y1="108" x2="50" y2="116" stroke="#4FB3B6" stroke-width="1.8"></line>
  <path d="M56 112 Q60 104 64 112 T72 112" fill="none" stroke="#ECE7D8" stroke-width="1.4"></path>
  <circle cx="80" cy="104" r="4" fill="none" stroke="#F06A4E" stroke-width="1.8"></circle>
  <line x1="80" y1="108" x2="80" y2="116" stroke="#F06A4E" stroke-width="1.8"></line>

  <g fill="none" stroke="#ECE7D8" stroke-width="1.3" stroke-opacity="0.6">
    <path d="M94 110 C 120 96 132 66 156 62"></path>
    <path d="M94 110 C 120 110 135 110 160 110"></path>
    <path d="M94 110 C 120 124 132 154 156 158"></path>
  </g>

  <circle cx="156" cy="62" r="13" fill="#1F2026" stroke="#ECE7D8" stroke-width="1.6"></circle>
  <circle cx="160" cy="110" r="13" fill="#1F2026" stroke="#ECE7D8" stroke-width="1.6"></circle>
  <circle cx="160" cy="110" r="6" fill="none" stroke="#F06A4E" stroke-width="1.8"></circle>
  <circle cx="160" cy="110" r="2.2" fill="#F06A4E"></circle>
  <circle cx="156" cy="158" r="13" fill="#1F2026" stroke="#ECE7D8" stroke-width="1.6"></circle>
</svg>
